.
 
http://www.scenetime.com    -   SceneTime [ We been having it ] !!!


How come you press harder on a remote control when you know the battery is dead? so you better seed to get speed ;)

        Seed back for speed


...................................NFO:.................................................E:\CINEMA\G-Love.2011.DVDRip.XviD-Numberone\G-Love.2011.DVDRip.XviD-Numberone.avi
   General
      Complete name : E:\CINEMA\G-Love.2011.DVDRip.XviD-Numberone\G-Love.2011.DVDRip.XviD-Numberone.avi
      Format : AVI
      Format/Info : Audio Video Interleave
      File size : 1.37 GiB
      Duration : 2h 24mn
      Overall bit rate : 1 356 Kbps
      Writing application : Nandub v1.0rc2
      Writing library : Nandub build 1852/release
   Video #0
      ID : 0
      Format : MPEG-4 Visual
      Format profile : AdvancedSimple@L5
      Format settings, BVOP : Yes
      Format settings, QPel : No
      Format settings, GMC : No warppoints
      Format settings, Matrix : Default (H.263)
      Muxing mode : Packed bitstream
      Codec ID : XVID
      Codec ID/Hint : XviD
      Duration : 2h 24mn
      Bit rate : 1 229 Kbps
      Width : 704 pixels
      Height : 288 pixels
      Display aspect ratio : 2.40:1
      Frame rate : 23.976 fps
      Resolution : 24 bits
      Colorimetry : 4:2:0
      Scan type : Progressive
      Bits/(Pixel*Frame) : 0.253
      Stream size : 1.24 GiB (91%)
      Writing library : XviD 61
   Audio #1
      ID : 1
      Format : MPEG Audio
      Format version : Version 1
      Format profile : Layer 3
      Codec ID : 55
      Codec ID/Hint : MP3
      Duration : 2h 24mn
      Bit rate mode : Variable
      Bit rate : 114 Kbps
      Nominal bit rate : 112 Kbps
      Channel(s) : 2 channels
      Sampling rate : 44.1 KHz
      Resolution : 16 bits
      Stream size : 118 MiB (8%)
      Alignment : Aligned on interleaves
      Interleave, duration : 26 ms (0.63 video frame)
      Interleave, preload duration : 160 ms
      Writing library : LAME3.90.
      Encoding settings : -m j -V 4 -q 2 -lowpass 16 --abr 112